<?xml version="1.0" encoding="UTF-8"?>
<svg xmlns="http://www.w3.org/2000/svg" width="600.0" height="600.0" viewBox="0 0 1024.0 1024.0">
<rect width="1024" height="1024" rx="200" ry="200" fill="#fff" />
<path d="M466.7,770.2c-0.1,0 -0.2,0.1 -0.3,0.1 -96.8,-14.8 -181.4,-73.6 -227.4,-162.5 -3.9,-9.8 -13.3,-16.8 -24.4,-16.8h-2.7c-11.7,0 -21.4,7.9 -24.8,18.6 -0.7,1.9 -0.9,3.8 -1.2,5.8 -0,0.7 -0.4,1.2 -0.4,1.9v1.4c-0,1.3 -0.2,2.6 0,3.9v126.8a26.4,26.4 0,0 0,26.3 26.3h2.7a26.4,26.4 0,0 0,26.3 -26.3v-40.9c55.4,62.5 130.8,102.9 213.9,116.3 3.6,1.7 8.3,1.7 12.6,1.7 0.1,0 0.2,-0.1 0.3,-0.1 0.1,0 0.1,0 0.2,0v-0.1c15.6,-0.3 27.5,-11.8 27.5,-27.5a28.7,28.7 0,0 0,-28.7 -28.7zM818.3,264.1h-2.7a26.4,26.4 0,0 0,-26.3 26.3v41.2c-53.4,-61.7 -126,-102.4 -206.5,-117.8a28.1,28.1 0,0 0,-10.1 -2.5c-0.8,-0.1 -1.5,-0.4 -2.2,-0.6v0.2a28.5,28.5 0,0 0,-28.2 28.5,28.5 28.5,0 0,0 28.2,28.5v0.3c94.4,17.3 175.9,76.6 220.1,164.8 2.4,4.9 6.3,8.2 10.6,10.9 4.2,2.9 9.1,5 14.5,5h2.7a26.4,26.4 0,0 0,26.3 -26.3V290.5a26.4,26.4 0,0 0,-26.3 -26.3z" fill="#000" />
<path d="M249.4,249.4v166.9a12.4,12.4 0,0 0,12.4 12.4h166.9a12.4,12.4 0,0 0,12.4 -12.4v-166.9a12.4,12.4 0,0 0,-12.4 -12.4h-166.9a12.4,12.4 0,0 0,-12.4 12.4zM246.3,181.4h197.8a52.5,52.5 0,0 1,52.5 52.5v197.8a52.5,52.5 0,0 1,-52.5 52.5L246.3,484.2a52.5,52.5 0,0 1,-52.5 -52.5L193.7,233.9a52.5,52.5 0,0 1,52.5 -52.5zM595.4,607.8v166.9a12.4,12.4 0,0 0,12.4 12.4h166.9a12.4,12.4 0,0 0,12.4 -12.4v-166.9a12.4,12.4 0,0 0,-12.4 -12.4h-166.9a12.4,12.4 0,0 0,-12.4 12.4zM592.3,539.8h197.8a52.5,52.5 0,0 1,52.5 52.5v197.8a52.5,52.5 0,0 1,-52.5 52.5L592.3,842.6a52.5,52.5 0,0 1,-52.5 -52.5L539.8,592.3a52.5,52.5 0,0 1,52.5 -52.5z" fill="#000" />
</svg>
