<?xml version="1.0" encoding="UTF-8"?>
<svg xmlns="http://www.w3.org/2000/svg" width="600.0" height="600.0" viewBox="0 0 1024.0 1024.0">
<g>
<path d="M795.6,92.7c-9.3,1.9 -20.7,8 -28.4,15.1 -3.6,3.5 -21.2,22 -39.1,41.4 -18.1,19.5 -52.1,56.2 -76,81.6 -23.7,25.4 -56.7,60.8 -73,78.5 -106.4,114.5 -140,150.6 -168,180.6 -17.3,18.5 -56.5,60.6 -87,93.4 -30.6,32.8 -60.3,64.5 -65.9,70.7 -36.1,38 -67.5,73 -69.9,77.6 -2.2,4.2 -4.1,22.1 -9.6,93.1 -4.4,56 -6.3,89.5 -5.5,92.5 3.3,11.1 15.2,20.3 27,20.3 3.1,-0 22.1,-4.6 42.4,-10.2 20.1,-5.8 44,-12.4 53.1,-14.9 50.9,-14.1 58.1,-16.6 64.7,-22.9 5.7,-5.5 124.5,-132.2 177.9,-189.8 11.3,-12.1 53.2,-57.3 93.3,-100.5 40,-43.2 80.7,-87 90.3,-97.3 9.6,-10.4 27.6,-29.7 40.2,-43.2 12.6,-13.5 44.7,-48 71.4,-76.9 26.8,-28.9 58.7,-63.3 71,-76.3 12.1,-13 24.3,-27.2 27,-31.4 14.9,-23.2 14.9,-56 0.2,-79.1 -2.5,-3.9 -18.5,-20.9 -35.6,-37.7 -54.6,-53.7 -58.7,-57.3 -68.5,-61.1 -10.7,-3.9 -22.9,-5.2 -31.9,-3.3zM843,196.8c19.3,19.2 35.2,36.1 35.2,37.5 0,2.8 -69.6,79 -72.1,79 -1.7,-0 -73.9,-69.7 -73.9,-71.4 0,-0.6 7.1,-8.8 15.9,-18.2 8.6,-9.4 25.1,-27.2 36.4,-39.4 11.5,-12.2 21.4,-22.3 22.1,-22.5 0.8,-0 17.1,15.7 36.4,35zM725.8,328.2c19.2,18.5 34.5,34.5 34.4,35.5 -0.3,0.9 -36.4,40.5 -80.5,87.9 -44,47.4 -108.6,116.8 -143.5,154.5 -129.5,139.6 -182.7,196.3 -183.7,196.3 -0.5,-0.2 -17.7,-16.5 -38.3,-36.6l-37.2,-36.4 52.1,-55.9c28.7,-30.6 80.5,-86 114.9,-123.2 231.6,-249 241.6,-259.5 244.3,-257.6 1.4,1.1 18.4,17.1 37.5,35.6zM282.5,826.2c9.4,9.3 16.6,17.1 16.3,17.4 -0.5,0.3 -13.3,4.2 -28.6,8.5l-27.9,7.9 0,-5.7c0,-3.1 1.1,-17.3 2.4,-31.6 1.3,-14.3 2.4,-26.8 2.4,-27.9 0,-2.5 12.6,8.5 35.5,31.4z" />
<path d="M393.1,126.9c-6.4,3.1 -10.7,10 -14.1,22.6l-2.5,9.4 -12.2,3.9c-13.8,4.7 -20.7,10.4 -22.3,18.5 -2,10.8 6,18.8 24.5,24.5l10.4,3.1 2.8,11.3c2.4,8.8 4.2,12.6 8.8,17.1 12.7,12.7 27.6,5.3 34.5,-17.1l3.5,-11.3 8.8,-2.5c17.7,-5.2 25.4,-12.1 25.4,-23.2 0,-9.9 -8,-16.6 -25.7,-21.5l-9.3,-2.7 -3,-10.7c-3.6,-12.9 -7.9,-19.3 -14.8,-22.1 -6.8,-2.8 -8.2,-2.8 -14.8,0.6z" />
<path d="M170.3,212.9c-4.1,3 -9.4,13.7 -9.6,19.2 0,2 -1.3,3.9 -2.7,4.4 -18.4,6 -25.6,11.8 -25.6,20.4 0,7.2 13.5,17.7 23.1,17.9 2.8,-0 3.9,1.6 6,8.8 3.3,11.3 9.6,17.9 17,17.9 8,-0 12.9,-4.9 16.6,-16.2 3.3,-9.6 3.6,-9.9 10.5,-11.8 9.7,-2.7 14.8,-6.3 17.4,-12.4 1.9,-4.6 1.9,-6 -0.3,-10.4 -2.7,-5.8 -6.3,-8.3 -17.1,-11.9 -7.2,-2.5 -7.9,-3.3 -10.4,-10.8 -4.1,-12.6 -8.8,-17.6 -16.5,-17.6 -2.7,-0 -6.4,1.1 -8.5,2.5z" />
<path d="M741,646.9c-9.1,2.8 -14.4,11.1 -18.4,28.7 -1.9,8.6 -2,8.9 -8.3,10.5 -21.2,5.3 -30.6,12.4 -31.9,23.7 -1.3,11.6 6.3,18.5 27.6,25.6l9.9,3.3 3.5,11.9c4.1,14.1 7.2,19.3 14,23.4 6.1,3.8 9.3,3.9 16.2,0.6 6.8,-3.3 11.3,-10.7 15.4,-25.4l3.3,-11.8 9.4,-2.2c10.5,-2.4 21.5,-8.2 25.1,-13.3 1.3,-2 2.4,-6.8 2.4,-11.3 0,-6.8 -0.6,-8.3 -5.5,-12.9 -4.7,-4.4 -15.5,-8.9 -30,-12.4 -0.8,-0.3 -2.8,-4.9 -4.4,-10.4 -4.6,-16.6 -8.2,-22.8 -15.7,-26.4 -3.6,-1.9 -6.9,-3.3 -7.4,-3.1 -0.3,-0 -2.7,0.8 -5.2,1.4z" />
</g>
</svg>
