<?xml version="1.0" encoding="UTF-8"?>
<svg xmlns="http://www.w3.org/2000/svg" width="600.0" height="600.0" viewBox="0 0 1024.0 1024.0" preserveAspectRatio="xMidYMid meet">
<rect width="1024" height="1024" rx="200" ry="200" fill="#fff" />
<g>
<path d="M713.1,234.1c-6.5,1.3 -14.5,5.6 -19.9,10.6 -2.5,2.4 -14.9,15.4 -27.4,29 -12.7,13.6 -36.5,39.4 -53.2,57.2 -16.6,17.8 -39.7,42.6 -51.2,55 -74.6,80.2 -98.1,105.5 -117.7,126.5 -12.1,13 -39.6,42.5 -60.9,65.5 -21.5,23 -42.2,45.2 -46.2,49.5 -25.3,26.6 -47.3,51.2 -49,54.3 -1.5,3 -2.9,15.5 -6.7,65.2 -3.1,39.3 -4.4,62.7 -3.9,64.8 2.3,7.8 10.7,14.2 18.9,14.2 2.2,-0 15.5,-3.2 29.7,-7.2 14.1,-4.1 30.8,-8.7 37.2,-10.4 35.6,-9.9 40.7,-11.7 45.3,-16.1 4,-3.9 87.2,-92.6 124.6,-133 7.9,-8.5 37.3,-40.2 65.3,-70.4 28.1,-30.3 56.5,-60.9 63.3,-68.2 6.7,-7.3 19.4,-20.8 28.2,-30.3 8.8,-9.5 31.4,-33.7 50,-53.9 18.8,-20.2 41.1,-44.3 49.7,-53.5 8.5,-9.1 17.1,-19 18.9,-22 10.4,-16.3 10.4,-39.3 0.1,-55.4 -1.8,-2.8 -13,-14.6 -25,-26.4 -38.3,-37.6 -41.1,-40.2 -48,-42.8 -7.5,-2.8 -16.1,-3.6 -22.3,-2.3zM746.4,307c13.5,13.4 24.6,25.3 24.6,26.3 0,2 -48.7,55.3 -50.5,55.3 -1.2,-0 -51.8,-48.8 -51.8,-50 0,-0.4 5,-6.2 11.1,-12.8 6.1,-6.6 17.6,-19 25.5,-27.6 8,-8.6 15,-15.6 15.5,-15.7 0.6,-0 12,11 25.5,24.5zM664.2,399.1c13.4,13 24.2,24.2 24.1,24.9 -0.2,0.7 -25.5,28.4 -56.4,61.6 -30.8,33.2 -76.1,81.8 -100.5,108.2 -90.8,97.8 -128,137.5 -128.7,137.5 -0.3,-0.1 -12.4,-11.6 -26.8,-25.6l-26.1,-25.5 36.5,-39.2c20.1,-21.5 56.4,-60.3 80.5,-86.3 162.3,-174.5 169.3,-181.8 171.2,-180.5 1,0.8 12.9,12 26.3,25zM353.7,748c6.6,6.5 11.7,12 11.4,12.2 -0.3,0.2 -9.4,3 -20,5.9l-19.6,5.5 0,-4c0,-2.2 0.8,-12.1 1.7,-22.1 0.9,-10 1.7,-18.8 1.7,-19.6 0,-1.8 8.8,5.9 24.9,22z" />
<path d="M431.1,258.1c-4.5,2.2 -7.5,7 -9.9,15.8l-1.8,6.6 -8.6,2.8c-9.7,3.3 -14.5,7.3 -15.6,13 -1.4,7.6 4.2,13.2 17.2,17.2l7.3,2.2 2,7.9c1.7,6.2 3,8.8 6.2,12 8.9,8.9 19.4,3.7 24.2,-12l2.4,-7.9 6.2,-1.8c12.4,-3.6 17.8,-8.5 17.8,-16.3 0,-6.9 -5.6,-11.7 -18,-15.1l-6.5,-1.9 -2.1,-7.5c-2.5,-9 -5.5,-13.5 -10.3,-15.5 -4.7,-2 -5.7,-2 -10.3,0.4z" />
<path d="M275,318.4c-2.9,2.1 -6.6,9.6 -6.7,13.4 0,1.4 -0.9,2.8 -1.9,3.1 -12.9,4.2 -17.9,8.3 -17.9,14.3 0,5.1 9.5,12.4 16.2,12.5 2,-0 2.8,1.1 4.2,6.2 2.3,7.9 6.7,12.5 11.9,12.5 5.6,-0 9,-3.4 11.7,-11.3 2.3,-6.7 2.5,-6.9 7.4,-8.3 6.8,-1.9 10.3,-4.4 12.2,-8.7 1.3,-3.2 1.3,-4.2 -0.2,-7.3 -1.9,-4.1 -4.4,-5.8 -12,-8.4 -5.1,-1.8 -5.5,-2.3 -7.3,-7.6 -2.9,-8.8 -6.2,-12.3 -11.6,-12.3 -1.9,-0 -4.5,0.8 -5.9,1.8z" />
<path d="M674.9,622.4c-6.4,2 -10.1,7.8 -12.9,20.1 -1.3,6.1 -1.4,6.3 -5.8,7.4 -14.9,3.7 -21.5,8.7 -22.3,16.6 -0.9,8.1 4.4,13 19.4,17.9l6.9,2.3 2.4,8.4c2.9,9.9 5.1,13.5 9.8,16.4 4.3,2.6 6.5,2.8 11.3,0.4 4.7,-2.3 7.9,-7.5 10.8,-17.8l2.3,-8.3 6.6,-1.5c7.4,-1.7 15.1,-5.7 17.6,-9.4 0.9,-1.4 1.7,-4.7 1.7,-7.9 0,-4.7 -0.4,-5.8 -3.9,-9 -3.3,-3.1 -10.9,-6.3 -21,-8.7 -0.6,-0.2 -2,-3.4 -3.1,-7.3 -3.2,-11.7 -5.7,-16 -11,-18.5 -2.5,-1.3 -4.8,-2.3 -5.2,-2.2 -0.2,-0 -1.9,0.6 -3.6,1z" />
</g>
</svg>
