<?xml version="1.0" encoding="UTF-8"?>
<svg xmlns="http://www.w3.org/2000/svg" width="1800.0" height="1800.0" viewBox="0 0 1024.0 1024.0">
<g>
<path d="M368.3,544.3c26.2,25.8 55.8,43.5 107.3,67.7L442.3,695.3c-61.3,-31.1 -98.4,-57 -128.9,-86.8l-4.7,-4.6 -4.7,4.6c-35.4,34.7 -79.3,69.1 -117,96.2 -33.4,24 -61.5,41.9 -74.4,49.1l-60.1,-63.7 10.4,-6.4 0.2,-0.1c37.4,-23.2 124.6,-77.3 185.6,-138.7l4,-4.1 -3.4,-4.6c-46.8,-62.4 -84.5,-134.7 -103.7,-214.4l-1.2,-5.1h-54.3L90.1,244.9h171.4L261.6,168.7h92v76.3h172v71.8h-56.7l-1.3,5a600.5,600.5 0,0 1,-100 213.8l-3.5,4.7 4.1,4zM235.9,316.7l2.3,8.4a481.9,481.9 0,0 0,63.8 140l5.6,8.3 5.5,-8.4c25.9,-39.1 47.3,-85.7 62.1,-140l2.3,-8.4L235.9,316.7zM582.2,495.3h57.9l138,366.7h-77l-22.3,-64.9h-134.3L521.7,862h-77l137.5,-366.7zM565.2,736.9h94l-46.2,-133.4 -47.8,133.4z" />
<path d="M800,802l160,0l0,60l-160,0zM800,494l160,0l0,60l-160,0zM852,550l60,0l0,256l-60,0z" />
</g>
</svg>
