<?xml version="1.0" standalone="no"?>
<svg xmlns="http://www.w3.org/2000/svg" width="600.0" height="600.0" viewBox="0 0 1024.0 1024.0">
<rect width="1024" height="1024" rx="200" ry="200" fill="#fff" />
<path d="M428.7,540.4c23.1,22.7 49,38.3 94.3,59.5l-29.3,73.2c-53.9,-27.4 -86.5,-50.1 -113.3,-76.3l-4.1,-4 -4.1,4c-31.1,30.5 -69.7,60.7 -102.8,84.5 -29.4,21.1 -54.1,36.8 -65.4,43.1L151.2,668.5l9.1,-5.7 0.1,-0.1c32.9,-20.4 109.5,-67.9 163.1,-121.9l3.5,-3.6 -3,-4c-41.1,-54.9 -74.3,-118.4 -91.1,-188.4l-1.1,-4.5h-47.8v-63.1h150.7v-67h80.9v67h151.2v63.1h-49.8l-1.1,4.4a527.8,527.8 0,0 1,-87.9 187.9l-3,4.1 3.6,3.5zM312.2,340.3l2.1,7.4A423.6,423.6 0,0 0,370.4 470.8l4.9,7.3 4.9,-7.4c22.7,-34.3 41.6,-75.4 54.6,-123l2,-7.4h-124.5zM616.6,497.4h50.9l121.3,322.3L721.1,819.6l-19.6,-57L583.5,762.6l-20,57h-67.6l120.8,-322.3zM601.6,709.6h82.6l-40.6,-117.2 -42,117.2z" fill="#000" />
<path d="M837,541.4m-34.8,0a34.8,34.8 0,1 0,69.5 0,34.8 34.8,0 1,0 -69.5,0ZM806.1,541.4v278.1h61.8V603.2h-61.8z" fill="#000" />
</svg>
