<?xml version="1.0" encoding="UTF-8"?>
<svg xmlns="http://www.w3.org/2000/svg" width="600.0" height="600.0" viewBox="0 0 1024.0 1024.0" preserveAspectRatio="xMidYMid meet">
<rect width="1024" height="1024" rx="200" ry="200" fill="#fff" />
<g>
<path d="M403.4,535.9c21.2,20.9 45.2,35.2 86.9,54.8L463.3,658.2c-49.7,-25.2 -79.7,-46.2 -104.4,-70.3l-3.8,-3.7 -3.8,3.7c-28.7,28.1 -64.3,56 -94.8,77.9 -27.1,19.4 -49.8,33.9 -60.3,39.8l-48.7,-51.6 8.5,-5.2 0.2,-0.1c30.3,-18.8 100.9,-62.6 150.3,-112.3l3.2,-3.3 -2.8,-3.7c-37.9,-50.6 -68.4,-109.1 -84,-173.7l-1,-4.1l-44,0L178,293.4l138.9,0L316.9,231.6l74.5,0l0,61.8l139.3,0l0,58.1l-45.9,0l-1.1,4a486.4,486.4 63.2,0 1,-81 173.2l-2.8,3.8 3.3,3.2zM296.1,351.5l1.9,6.8a390.3,390.3 129.9,0 0,51.7 113.4l4.5,6.8 4.4,-6.8c21,-31.7 38.3,-69.4 50.3,-113.4l1.9,-6.8L296.1,351.5zM576.6,496.2l46.9,0l111.8,297l-62.4,0l-18.1,-52.6l-108.8,0L527.5,793.2l-62.4,0l111.4,-297zM562.8,691.9l76.1,0l-37.4,-108.1 -38.7,108.1z" />
<path d="M753,744.6l129.6,0l0,48.6l-129.6,0zM753,495.1l129.6,0l0,48.6l-129.6,0zM795.1,540.5l48.6,0l0,207.4l-48.6,0z" />
</g>
</svg>
